<?xml version="1.0" encoding="utf-8"?>
<!-- Generator: Adobe Illustrator 19.0.0, SVG Export Plug-In . SVG Version: 6.00 Build 0)  -->
<svg version="1.1" id="Layer_1" xmlns="http://www.w3.org/2000/svg" xmlns:xlink="http://www.w3.org/1999/xlink" x="0px" y="0px"
	 viewBox="0 0 500 500" style="enable-background:new 0 0 500 500;" xml:space="preserve">
<style type="text/css">
	.st0{fill-rule:evenodd;clip-rule:evenodd;fill:#517EA3;}
	.st1{fill-rule:evenodd;clip-rule:evenodd;fill:#FEFEFE;}
</style>
<g>
	<path class="st0" d="M500,250c0,138.1-111.9,250-250,250C111.9,500,0,388.1,0,250C0,111.9,111.9,0,250,0C388.1,0,500,111.9,500,250
		z"/>
	<g>
		<path class="st1" d="M249.7,377.4c-32.8,0-65.7,0-98.5,0c-17.4,0-28-10.4-28-27.7c0-45.6,0-91.2-0.1-136.9c0-4.2,0.8-5.7,5.4-5.7
			c21.1,0.3,42.1,0.2,63.2,0c4.2,0,4.9,0.6,3.2,4.8c-13.7,32.8,3.3,69.3,37,80.1c33.4,10.7,68.6-9.9,76.3-44.5
			c2.7-12.4,1.5-24.5-3.6-36c-1.9-4.2-0.7-4.4,3.1-4.4c21.6,0.1,43.1,0.2,64.7,0c3.8,0,4.8,1.1,4.7,4.8c-0.1,45.9,0,91.9-0.1,137.8
			c-0.1,17.4-10.8,27.6-28.2,27.6C315.7,377.4,282.7,377.4,249.7,377.4z"/>
		<path class="st1" d="M376.9,150.5c-0.3-16.8-10.9-26.9-27.9-26.9c-33,0-66,0-99,0c-33.3,0-66.7,0-100,0
			c-15.8,0-26.7,10.6-26.8,26.4c-0.2,15.3,0.1,30.5-0.1,45.8c-0.1,3.8,1.2,4.7,4.8,4.7c23.2-0.1,46.4-0.1,69.7,0
			c2.8,0,4.4-1,6.2-3.1c24.8-29.2,67.3-29.1,92.1,0.1c1.7,2,3.3,2.7,5.9,2.7c23.6-0.1,47.1-0.1,70.7,0c3.3,0,4.7-0.8,4.6-4.4
			C376.9,180.7,377.2,165.6,376.9,150.5z M140,189c-2.9,0-3.6-1.1-3.6-3.8c0.1-11.6,0-23.1,0.1-34.7c0-5,3-8,7.6-11.1
			c0,3.9,0,7,0,10.1c0,11.9-0.1,23.8,0,35.7C144.1,188.3,142.8,189,140,189z M154.5,189c-3,0-4.6-0.5-4.5-4.1
			c0.2-14.8,0.2-29.5,0-44.3c0-3.7,1.9-3.8,4.7-3.9c3.1-0.1,4,1.1,3.9,4.1c-0.2,7.5-0.1,14.9-0.1,22.4c0,7.3-0.1,14.6,0.1,21.9
			C158.6,188.3,157.4,189,154.5,189z M173.4,162.9c0,7.3-0.2,14.6,0.1,21.9c0.1,3.4-1.1,4.3-4.3,4.2c-3,0-4-0.9-4-4
			c0.1-14.8,0.1-29.5,0-44.3c0-3.1,0.9-4,4-4c3.2,0,4.4,0.9,4.3,4.2C173.3,148.3,173.4,155.6,173.4,162.9z M188.2,185.3
			c0,2.9-1.2,3.7-3.8,3.6c-2.5-0.1-4.5-0.1-4.4-3.6c0.2-7.6,0.1-15.2,0.1-22.9c0-7.3,0.1-14.6-0.1-21.9c-0.1-3.1,1.2-4,4.1-3.9
			c2.8,0,4.2,0.6,4.2,3.8C188,155.5,188.1,170.4,188.2,185.3z M362.4,169.7c-0.3,9.1-6.2,15.8-15.2,16.8c-8.6,0.9-17.2,0.9-25.8,0
			c-8.6-0.9-14.5-7.4-14.8-16c-0.2-5.1-0.2-10.3,0-15.4c0.3-9.2,6.8-15.9,16-16.5c4-0.3,8,0,11.9,0c0,0,0,0,0,0
			c3.6,0,7.3-0.1,10.9,0c9.8,0.5,16.7,7.4,17,17.2C362.5,160.4,362.5,165.1,362.4,169.7z"/>
		<path class="st1" d="M250,182.3c-29.6,0-53.6,23.9-53.5,53.3c0.1,29.2,24,53.1,53.2,53.2c29.6,0.1,53.4-23.8,53.4-53.4
			C303.1,206.1,279.4,182.3,250,182.3z M250,278.2c-23.8-0.1-42.9-19.3-42.9-43.1c0.1-23.9,19.5-42.9,43.7-42.8
			c23.6,0.1,42.6,19.7,42.3,43.6C292.9,259.4,273.7,278.3,250,278.2z"/>
	</g>
</g>
</svg>
