<svg version="1.1" id="Capa_1" xmlns="http://www.w3.org/2000/svg" xmlns:xlink="http://www.w3.org/1999/xlink" x="0px" y="0px" viewBox="0 0 612.074 612.074" style="enable-background:new 0 0 612.074 612.074;" xml:space="preserve"  width="100%" height="100%"><rect id="svgEditorBackground" x="0" y="0" width="612.074" height="612.074" style="fill: none; stroke: none;"/>

<g>
</g>
<g>
</g>
<g>
</g>
<g>
</g>
<g>
</g>
<g>
</g>
<g>
</g>
<g>
</g>
<g>
</g>
<g>
</g>
<g>
</g>
<g>
</g>
<g>
</g>
<g>
</g>
<g>
</g>
<path d="M306.0369873046875,0c-169.0399932861328,0,-306.0369873046875,136.9969940185547,-306.0369873046875,306.0369873046875s136.9969940185547,306.0369873046875,306.0369873046875,306.0369873046875s306.0369873046875,-136.99700927734375,306.0369873046875,-306.0369873046875s-136.99697875976562,-306.0369873046875,-306.0369873046875,-306.0369873046875ZM306.0369873046875,582.405029296875c-153.0189971923828,0,-276.3680114746094,-124.16500854492188,-276.3680114746094,-276.3680114746094s123.35002136230469,-276.3680114746094,276.3680114746094,-276.3680114746094s276.3680419921875,124.16500854492188,276.3680419921875,276.3680114746094s-124.1650390625,276.3680114746094,-276.3680419921875,276.3680114746094ZM426.1969909667969,276.3680114746094c5.636993408203125,5.636993408203125,5.636993408203125,15.204986572265625,0,20.842987060546875c-3.188995361328125,3.188995361328125,-6.378997802734375,4.0050048828125,-10.384002685546875,4.0050048828125c-4.0050048828125,0,-7.19500732421875,-1.631988525390625,-10.384002685546875,-4.0050048828125l-85.00198364257812,-84.92800903320312v234.68301391601562c0,8.010986328125,-6.378997802734375,14.3900146484375,-14.3900146484375,14.3900146484375c-8.010986328125,0,-14.3900146484375,-6.378997802734375,-14.3900146484375,-14.3900146484375v-234.68299865722656l-84.18600463867188,84.11201477050781c-5.636993408203125,5.636993408203125,-15.205001831054688,5.636993408203125,-20.843002319335938,0s-5.636993408203125,-15.204986572265625,0,-20.842987060546875l108.96000671386719,-108.88600158691406c0.816009521484375,-0.8159942626953125,1.631988525390625,-1.6320037841796875,2.373992919921875,-1.6320037841796875l0.816009521484375,-0.8159942626953125c0.816009521484375,0,0.816009521484375,-0.8159942626953125,1.631988525390625,-0.8159942626953125c0.816009521484375,0,0.816009521484375,0,1.631988525390625,-0.8159942626953125c0.816009521484375,0,0.816009521484375,0,1.631988525390625,0c1.631988525390625,0,4.0050048828125,0,5.636993408203125,0c0.816009521484375,0,0.816009521484375,0,1.631988525390625,0s0.816009521484375,0,1.631988525390625,0.8159942626953125c0.816009521484375,0,0.816009521484375,0.8159942626953125,1.631988525390625,0.8159942626953125c0,0,0.816009521484375,0,0.816009521484375,0.8159942626953125c0.816009521484375,0.8159942626953125,1.631988525390625,0.8159942626953125,2.373992919921875,1.6320037841796875l108.81008911132812,109.70198059082031Z" stroke="white" fill="white"/></svg>